<svg aria-hidden="true" style="position: absolute; width: 0; height: 0; overflow: hidden;" version="1.1" xmlns="http://www.w3.org/2000/svg" xmlns:xlink="http://www.w3.org/1999/xlink">
<defs>
<symbol id="checked" viewBox="0 0 32 32">
<path d="M13 5v-1.002c0-1.1 0.898-1.998 2.005-1.998h0.99c1.111 0 2.005 0.895 2.005 1.998v1.002h2.004c0.551 0 0.996 0.447 0.996 0.999v1.002c0 0.556-0.446 0.999-0.996 0.999h-9.009c-0.551 0-0.996-0.447-0.996-0.999v-1.002c0-0.556 0.446-0.999 0.996-0.999h2.004zM12 4h-0.997c-1.104 0-2 0.891-2.003 2h-1.003c-1.103 0-1.997 0.89-1.997 2.004v20.993c0 1.107 0.891 2.004 1.997 2.004h15.005c1.103 0 1.997-0.89 1.997-2.004v-20.993c0-1.107-0.891-2.004-1.997-2.004h-1.003c-0.003-1.105-0.895-2-2.003-2h-0.997c-0.001-1.657-1.35-3-3.009-3h-0.982c-1.661 0-3.008 1.338-3.009 3v0 0zM22 7h1c0.545 0 1 0.449 1 1.003v20.994c0 0.564-0.448 1.003-1 1.003h-15c-0.545 0-1-0.449-1-1.003v-20.994c0-0.564 0.448-1.003 1-1.003h1c0.003 1.105 0.895 2 2.003 2h8.994c1.104 0 2-0.891 2.003-2v0 0zM15.5 5c0.276 0 0.5-0.224 0.5-0.5s-0.224-0.5-0.5-0.5c-0.276 0-0.5 0.224-0.5 0.5s0.224 0.5 0.5 0.5v0zM14.254 23.685l7.778-7.778-0.707-0.707-7.071 7.071-3.743-3.743-0.707 0.707 4.45 4.45z"></path>
</symbol>
<symbol id="list" viewBox="0 0 32 32">
<path d="M13 5v-1.002c0-1.1 0.898-1.998 2.005-1.998h0.99c1.111 0 2.005 0.895 2.005 1.998v1.002h2.004c0.551 0 0.996 0.447 0.996 0.999v1.002c0 0.556-0.446 0.999-0.996 0.999h-9.009c-0.551 0-0.996-0.447-0.996-0.999v-1.002c0-0.556 0.446-0.999 0.996-0.999h2.004zM12 4h-0.997c-1.104 0-2 0.891-2.003 2h-1.003c-1.103 0-1.997 0.89-1.997 2.004v20.993c0 1.107 0.891 2.004 1.997 2.004h15.005c1.103 0 1.997-0.89 1.997-2.004v-20.993c0-1.107-0.891-2.004-1.997-2.004h-1.003c-0.003-1.105-0.895-2-2.003-2h-0.997c-0.001-1.657-1.35-3-3.009-3h-0.982c-1.661 0-3.008 1.338-3.009 3v0 0zM22 7h1c0.545 0 1 0.449 1 1.003v20.994c0 0.564-0.448 1.003-1 1.003h-15c-0.545 0-1-0.449-1-1.003v-20.994c0-0.564 0.448-1.003 1-1.003h1c0.003 1.105 0.895 2 2.003 2h8.994c1.104 0 2-0.891 2.003-2v0 0zM15.5 5c0.276 0 0.5-0.224 0.5-0.5s-0.224-0.5-0.5-0.5c-0.276 0-0.5 0.224-0.5 0.5s0.224 0.5 0.5 0.5v0zM14 14v1h8v-1h-8zM9 13h3v3h-3v-3zM10 14v1h1v-1h-1zM9 18h3v3h-3v-3zM10 19v1h1v-1h-1zM14 19v1h8v-1h-8zM9 23h3v3h-3v-3zM10 24v1h1v-1h-1zM14 24v1h8v-1h-8z"></path>
</symbol>
<symbol id="add" viewBox="0 0 32 32">
<path d="M21 26v-3h1v3h3v1h-3v3h-1v-3h-3v-1h3zM17.257 30h-10.26c-1.107 0-1.997-0.897-1.997-2.004v-20.993c0-1.114 0.894-2.004 1.997-2.004h1.003c0.003-1.109 0.898-2 2.003-2h0.997c0.001-1.662 1.348-3 3.009-3h0.982c1.659 0 3.008 1.343 3.009 3h0.997c1.108 0 2 0.895 2.003 2v0h1.003c1.107 0 1.997 0.897 1.997 2.004v14.596c1.781 0.91 3 2.763 3 4.9 0 3.038-2.462 5.5-5.5 5.5-1.708 0-3.234-0.779-4.243-2v0 0zM23 21.207v-14.204c0-0.554-0.455-1.003-1-1.003h-1c-0.003 1.109-0.898 2-2.003 2h-8.994c-1.108 0-2-0.895-2.003-2h-1c-0.552 0-1 0.439-1 1.003v20.994c0 0.554 0.455 1.003 1 1.003h9.6c-0.383-0.75-0.6-1.6-0.6-2.5 0-3.038 2.462-5.5 5.5-5.5 0.52 0 1.023 0.072 1.5 0.207v0 0zM12 4h-2.004c-0.55 0-0.996 0.443-0.996 0.999v1.002c0 0.552 0.445 0.999 0.996 0.999h9.009c0.55 0 0.996-0.443 0.996-0.999v-1.002c0-0.552-0.445-0.999-0.996-0.999h-2.004v-1.002c0-1.103-0.894-1.998-2.005-1.998h-0.99c-1.107 0-2.005 0.898-2.005 1.998v1.002zM14.5 4c0.276 0 0.5-0.224 0.5-0.5s-0.224-0.5-0.5-0.5c-0.276 0-0.5 0.224-0.5 0.5s0.224 0.5 0.5 0.5v0zM21.5 31c2.485 0 4.5-2.015 4.5-4.5s-2.015-4.5-4.5-4.5c-2.485 0-4.5 2.015-4.5 4.5s2.015 4.5 4.5 4.5v0z"></path>
</symbol>
<symbol id="arrow" viewBox="0 0 32 32">
<path d="M19.414 27.414l10-10c0.781-0.781 0.781-2.047 0-2.828l-10-10c-0.781-0.781-2.047-0.781-2.828 0s-0.781 2.047 0 2.828l6.586 6.586h-19.172c-1.105 0-2 0.895-2 2s0.895 2 2 2h19.172l-6.586 6.586c-0.39 0.39-0.586 0.902-0.586 1.414s0.195 1.024 0.586 1.414c0.781 0.781 2.047 0.781 2.828 0z"></path>
</symbol>
</defs>
</svg>
